HIERARCHY
ROOT Hips
{
	OFFSET 0.00000 0.00000 0.00000
	CHANNELS 6 Xposition Yposition Zposition Zrotation Yrotation Xrotation 
	JOINT LHipJoint
	{
		OFFSET 0 0 0
		CHANNELS 3 Zrotation Yrotation Xrotation
		JOINT LeftHip
		{
			OFFSET 3.13874 -1.57224 1.49786
			CHANNELS 3 Zrotation Yrotation Xrotation
			JOINT LeftKnee
			{
				OFFSET 2.10955 -5.79594 0.00000
				CHANNELS 3 Zrotation Yrotation Xrotation
				JOINT LeftAnkle
				{
					OFFSET 2.41843 -6.64458 0.00000
					CHANNELS 3 Zrotation Yrotation Xrotation
					JOINT LeftToe
					{
						OFFSET 0.04713 -0.12948 1.66229
						CHANNELS 3 Zrotation Yrotation Xrotation
						End Site
						{
							OFFSET 0.00000 -0.00000 0.85167
						}
					}
				}
			}
		}
	}
	JOINT RHipJoint
	{
		OFFSET 0 0 0
		CHANNELS 3 Zrotation Yrotation Xrotation
		JOINT RightHip
		{
			OFFSET -3.13988 -1.57224 1.49786
			CHANNELS 3 Zrotation Yrotation Xrotation
			JOINT RightKnee
			{
				OFFSET -2.15006 -5.90725 0.00000
				CHANNELS 3 Zrotation Yrotation Xrotation
				JOINT RightAnkle
				{
					OFFSET -2.34496 -6.44273 0.00000
					CHANNELS 3 Zrotation Yrotation Xrotation
					JOINT RightToe
					{
						OFFSET -0.08699 -0.23900 1.55223
						CHANNELS 3 Zrotation Yrotation Xrotation
						End Site
						{
							OFFSET -0.00000 -0.00000 0.80281
						}
					}
				}
			}
		}
	}
	JOINT lowerback
	{
		OFFSET 0 0 0
		CHANNELS 3 Zrotation Yrotation Xrotation
		JOINT Chest
		{
			OFFSET 0.01292 1.96517 -0.16495
			CHANNELS 3 Zrotation Yrotation Xrotation
			JOINT Chest2
			{
				OFFSET 0.02122 1.88666 0.19706
				CHANNELS 3 Zrotation Yrotation Xrotation
				JOINT lowerneck
				{
					OFFSET 0 0 0
					CHANNELS 3 Zrotation Yrotation Xrotation
					JOINT Neck
					{
						OFFSET -0.01683 1.81591 0.07903
						CHANNELS 3 Zrotation Yrotation Xrotation
						JOINT Head
						{
							OFFSET 0.00815 1.74013 -0.47700
							CHANNELS 3 Zrotation Yrotation Xrotation
							End Site
							{
								OFFSET -0.00204 1.83225 -0.16933
							}
						}
					}
				}
				JOINT LeftCollar
				{
					OFFSET 0 0 0
					CHANNELS 3 Zrotation Yrotation Xrotation
					JOINT LeftShoulder
					{
						OFFSET 3.38482 1.41533 0.19802
CHANNELS 3 Zrotation Xrotation Yrotation
						JOINT LeftElbow
						{
OFFSET 0 -4.327120 0.000000
CHANNELS 3 Zrotation Xrotation Yrotation
							JOINT LeftWrist
							{
OFFSET 0 -3.285870 -0.000000
CHANNELS 3 Zrotation Xrotation Yrotation
								JOINT lhand
								{
									OFFSET 0 0 0
CHANNELS 3 Zrotation Xrotation Yrotation
									JOINT LFingers
									{
OFFSET 0 -0.433160 -0.000000
CHANNELS 3 Zrotation Xrotation Yrotation
										End Site
										{
OFFSET 0 -0.349220 -0.000000
										}
									}
								}
								JOINT LThumb
								{
OFFSET 0 0.000000 0.000000
CHANNELS 3 Zrotation Xrotation Yrotation
									End Site
									{
OFFSET 0 -0.354560 0.354560
									}
								}
							}
						}
					}
				}
				JOINT RightCollar
				{
					OFFSET 0 0 0
					CHANNELS 3 Zrotation Yrotation Xrotation
					JOINT RightShoulder
					{
						OFFSET -3.09725 1.62858 -0.14144
CHANNELS 3 Zrotation Xrotation Yrotation
						JOINT RightElbow
						{
OFFSET 0 -4.291040 0.000000
CHANNELS 3 Zrotation Xrotation Yrotation
							JOINT RightWrist
							{
OFFSET 0 -3.227200 -0.000000
CHANNELS 3 Zrotation Xrotation Yrotation
								JOINT rhand
								{
									OFFSET 0 0 0
CHANNELS 3 Zrotation Xrotation Yrotation
									JOINT RFingers
									{
OFFSET 0 -0.543620 -0.000000
CHANNELS 3 Zrotation Xrotation Yrotation
										End Site
										{
OFFSET 0 -0.438280 -0.000000
										}
									}
								}
								JOINT RThumb
								{
OFFSET 0 0.000000 0.000000
CHANNELS 3 Zrotation Xrotation Yrotation
									End Site
									{
OFFSET 0 -0.444970 0.444970
									}
								}
							}
						}
					}
				}
			}
		}
	}
}
MOTION
Frames: 11
Frame Time: 0.008333333333333333
-36.110400 16.279300 2.181900 -176.402000 1.812300 -168.197000 0.000000 0.000000 0.000000 -30.842900 -39.919100 15.401300 0.024900 -1.018500 -2.799700 4.205300 -16.631400 -37.448700 0.305000 -3.550700 -9.816000 0.000000 0.000000 0.000000 38.947000 31.692200 17.366200 -0.293900 3.485800 -9.634400 -0.975400 -28.775300 -44.423400 -3.486700 -11.444100 33.792600 -4.740700 -0.832400 4.865900 6.311800 0.143000 -9.841000 9.657900 1.496800 -13.620800 -6.965000 -0.635700 -16.086000 1.458600 2.450500 29.388100 2.263800 1.161400 12.318900 -0.000000 -0.000000 0.000000 0.432100 20.508700 -21.760900 19.069800 -29.505300 5.065200 27.055600 14.091600 -25.486500 0.000000 0.000000 0.000000 -7.125000 0.000000 0.000000 -3.003900 58.113100 0.964400 -0.000000 -0.000000 0.000000 -25.716000 14.104700 53.895100 -17.250800 -27.187300 -4.201300 -28.775000 -1.937900 21.436900 0.000000 0.000000 0.000000 7.125000 0.000000 -0.000000 -0.064000 54.109900 0.014300
-36.111637 16.283269 2.176025 -176.388962 1.745419 -168.249654 0.000000 0.000000 0.000000 -30.608957 -39.262091 14.999256 0.030321 -1.124434 -3.091227 4.216268 -14.508778 -37.365083 0.364563 -3.876003 -10.728399 0.000000 0.000000 0.000000 39.008091 31.571427 17.465340 -0.298665 3.513904 -9.712999 -4.412165 -16.985478 -47.720613 -2.076114 -9.020754 25.861816 -3.960661 -1.114096 5.700386 5.809430 -0.208330 -10.272285 8.725736 1.265440 -14.570538 -5.896494 -0.385854 -16.052945 1.054714 2.685723 29.785928 1.977076 1.344568 12.476373 0.000000 0.000000 0.000000 1.415621 21.335314 -21.402648 19.265259 -29.746915 5.161811 26.246840 13.006583 -25.444606 0.000000 0.000000 0.000000 -7.125000 0.000000 0.000000 -3.885596 57.884456 1.220420 0.000000 0.000000 0.000000 -24.619195 14.673018 53.899315 -17.198578 -27.118782 -4.177450 -28.070781 -0.445186 21.743951 0.000000 0.000000 0.000000 7.125000 0.000000 0.000000 0.757424 54.301608 -0.172836
-36.111038 16.284485 2.170827 -176.353459 1.703521 -168.273424 0.000000 0.000000 0.000000 -30.461599 -38.981067 14.761760 0.027831 -1.077242 -2.961516 4.232795 -13.029711 -37.397101 0.461258 -4.355822 -12.080147 0.000000 0.000000 0.000000 39.093559 31.509236 17.524941 -0.300658 3.525258 -9.744824 -4.216548 -18.020765 -47.631725 -2.011990 -8.891099 25.455183 -3.943696 -1.125565 5.817673 5.805908 -0.213568 -10.334115 8.720564 1.274354 -14.719682 -5.459035 -0.390843 -15.947488 0.315687 2.772816 29.661301 1.630299 1.339810 12.423002 0.000000 0.000000 0.000000 1.524215 21.314680 -21.391947 19.185607 -29.648674 5.122380 23.801180 11.388118 -24.798986 0.000000 0.000000 0.000000 -7.125000 0.000000 0.000000 -6.309480 56.662396 1.807429 0.000000 0.000000 0.000000 -24.614053 14.720416 54.339869 -17.198643 -27.118928 -4.177439 -28.012289 -0.698673 21.589622 0.000000 0.000000 0.000000 7.125000 0.000000 0.000000 0.781686 54.121353 -0.175237
-36.110579 16.285954 2.166782 -176.333806 1.657097 -168.297521 0.000000 0.000000 0.000000 -30.350972 -38.786538 14.578061 0.025471 -1.030732 -2.833398 4.267594 -11.381713 -37.571873 0.608831 -4.987479 -13.874212 0.000000 0.000000 0.000000 39.142145 31.445123 17.563026 -0.302277 3.534806 -9.771497 -4.440579 -17.079702 -47.885878 -1.936081 -8.731544 24.959096 -3.861712 -1.164211 5.973288 5.754672 -0.258065 -10.406614 8.631126 1.252650 -14.897625 -4.941669 -0.356312 -15.844534 -0.436746 2.898369 29.535200 1.271970 1.359902 12.370386 0.000000 0.000000 0.000000 1.720416 21.303287 -21.335637 19.104713 -29.548523 5.082378 22.448269 10.477668 -24.367260 0.000000 0.000000 0.000000 -7.125000 0.000000 0.000000 -7.576321 55.928039 2.037531 0.000000 0.000000 0.000000 -24.460927 14.773249 54.660507 -17.202389 -27.123749 -4.179168 -27.819092 -0.775855 21.495539 0.000000 0.000000 0.000000 7.125000 0.000000 0.000000 0.963034 53.979803 -0.212467
-36.109561 16.287046 2.164023 -176.305689 1.607111 -168.325464 0.000000 0.000000 0.000000 -30.266938 -38.709339 14.472936 0.022546 -0.969310 -2.664255 4.288369 -10.051499 -37.716203 0.770967 -5.605816 -15.645104 0.000000 0.000000 0.000000 39.177511 31.390457 17.565830 -0.301577 3.531122 -9.760998 -4.447447 -17.068459 -47.904977 -1.930531 -8.719901 24.923120 -3.825350 -1.177416 6.062122 5.751023 -0.271532 -10.423954 8.612929 1.246584 -14.973197 -4.498086 -0.340576 -15.765802 -1.229484 3.019734 29.332504 0.910238 1.362854 12.294232 0.000000 0.000000 0.000000 1.815891 21.179472 -21.307913 19.007515 -29.428020 5.034565 21.312675 9.772797 -23.999924 0.000000 0.000000 0.000000 -7.125000 0.000000 0.000000 -8.618263 55.316481 2.194182 0.000000 0.000000 0.000000 -24.373954 14.758897 54.975128 -17.229626 -27.159473 -4.191594 -27.639877 -0.995228 21.424919 0.000000 0.000000 0.000000 7.125000 0.000000 0.000000 1.134669 53.866877 -0.247388
-36.108458 16.288525 2.162417 -176.271920 1.544612 -168.364928 0.000000 0.000000 0.000000 -30.147269 -38.522061 14.296737 0.020675 -0.927567 -2.549528 4.223801 -9.662585 -37.435478 0.835930 -5.831937 -16.297788 0.000000 0.000000 0.000000 39.185678 31.333509 17.527079 -0.298128 3.511032 -9.704929 -4.464485 -16.978736 -47.914417 -1.963257 -8.789025 25.137702 -3.738361 -1.191017 6.167677 5.740114 -0.284863 -10.419949 8.556437 1.230506 -15.032547 -4.105087 -0.326908 -15.731573 -1.996397 3.140870 29.109169 0.568652 1.362052 12.219943 0.000000 0.000000 0.000000 1.880458 21.053323 -21.293786 18.949601 -29.355961 5.006081 20.608500 9.348111 -23.828909 0.000000 0.000000 0.000000 -7.125000 0.000000 0.000000 -9.278580 55.000240 2.293074 0.000000 0.000000 0.000000 -24.251172 14.735109 55.259091 -17.266156 -27.207245 -4.208304 -27.464304 -1.162949 21.503367 0.000000 0.000000 0.000000 7.125000 0.000000 0.000000 1.339399 53.917025 -0.293742
-36.107835 16.290893 2.161823 -176.252037 1.470767 -168.415853 0.000000 0.000000 0.000000 -30.063890 -38.354399 14.152461 0.019015 -0.889642 -2.445234 4.150385 -9.543647 -37.096352 0.856953 -5.903632 -16.504933 0.000000 0.000000 0.000000 39.162934 31.262963 17.471416 -0.293657 3.484531 -9.630844 -4.494285 -16.828502 -47.935473 -2.006171 -8.878854 25.417078 -3.650428 -1.204729 6.301680 5.719751 -0.304307 -10.403797 8.490622 1.208597 -15.094120 -3.712510 -0.315298 -15.745807 -2.740565 3.252564 28.897858 0.236199 1.358853 12.161393 0.000000 0.000000 0.000000 1.931606 20.964329 -21.334967 18.942489 -29.347228 5.002601 20.182282 9.103475 -23.816233 0.000000 0.000000 0.000000 -7.125000 0.000000 0.000000 -9.713586 54.902830 2.379139 0.000000 0.000000 0.000000 -24.121545 14.707600 55.539807 -17.298627 -27.249790 -4.223206 -27.295198 -1.303107 21.668239 0.000000 0.000000 0.000000 7.125000 0.000000 0.000000 1.559629 54.061921 -0.347461
-36.108319 16.294177 2.161910 -176.273871 1.392498 -168.467699 0.000000 0.000000 0.000000 -30.021664 -38.162293 13.989466 0.017425 -0.851691 -2.340734 4.067377 -9.689384 -36.692689 0.827954 -5.805114 -16.219992 0.000000 0.000000 0.000000 39.096160 31.179697 17.413907 -0.289623 3.460608 -9.563822 -4.539589 -16.628863 -47.986011 -2.048091 -8.965520 25.687530 -3.582814 -1.220731 6.441697 5.689410 -0.332166 -10.389891 8.427047 1.183960 -15.160942 -3.328920 -0.302239 -15.746085 -3.468015 3.368541 28.701835 -0.086040 1.361272 12.107146 0.000000 0.000000 0.000000 1.971933 20.948941 -21.496124 18.981893 -29.396093 5.021937 20.478297 9.200089 -24.022107 0.000000 0.000000 0.000000 -7.125000 0.000000 0.000000 -9.494787 55.171549 2.386779 0.000000 0.000000 0.000000 -24.007238 14.686150 55.815320 -17.311689 -27.266891 -4.229122 -27.133280 -1.461815 21.800205 0.000000 0.000000 0.000000 7.125000 0.000000 0.000000 1.764930 54.172034 -0.397959
-36.109631 16.297647 2.162439 -176.322317 1.319919 -168.505775 0.000000 0.000000 0.000000 -30.029930 -38.047025 13.872742 0.015923 -0.815118 -2.240217 4.017149 -9.711646 -36.451024 0.809876 -5.742961 -16.040457 0.000000 0.000000 0.000000 39.001090 31.101195 17.354589 -0.286407 3.441697 -9.511022 -4.591332 -16.421004 -48.057174 -2.085321 -9.041505 25.925361 -3.525444 -1.236872 6.565997 5.655055 -0.358312 -10.391332 8.364620 1.163081 -15.237014 -2.945009 -0.294307 -15.695688 -4.220758 3.492507 28.517307 -0.415289 1.369163 12.049351 0.000000 0.000000 0.000000 2.011238 21.015524 -21.785657 19.043835 -29.473076 5.052421 21.063647 9.330460 -24.221222 0.000000 0.000000 0.000000 -7.125000 0.000000 0.000000 -8.970715 55.492815 2.323707 0.000000 0.000000 0.000000 -23.928019 14.690618 56.102512 -17.314100 -27.270000 -4.230285 -26.993032 -1.678041 21.814764 0.000000 0.000000 0.000000 7.125000 0.000000 0.000000 1.916830 54.159536 -0.431612
-36.111327 16.300556 2.163131 -176.377162 1.263587 -168.518346 0.000000 0.000000 0.000000 -30.051036 -37.968228 13.774823 0.015500 -0.803320 -2.207863 3.969866 -9.996992 -36.209148 0.766470 -5.590212 -15.600001 0.000000 0.000000 0.000000 38.897100 31.047807 17.288865 -0.284207 3.428713 -9.474730 -4.626479 -16.270090 -48.100390 -2.121266 -9.114229 26.153240 -3.472727 -1.247576 6.653048 5.627801 -0.371054 -10.406607 8.309374 1.151887 -15.308901 -2.582483 -0.296302 -15.605090 -4.974064 3.615072 28.343219 -0.739873 1.378603 11.989182 0.000000 0.000000 0.000000 2.029074 21.126486 -22.100793 19.095822 -29.537553 5.077994 21.439134 9.255091 -24.239687 0.000000 0.000000 0.000000 -7.125000 0.000000 0.000000 -8.586255 55.588016 2.243192 0.000000 0.000000 0.000000 -23.889370 14.721775 56.387002 -17.308073 -27.262119 -4.227518 -26.906933 -1.965131 21.690747 0.000000 0.000000 0.000000 7.125000 0.000000 0.000000 1.974536 54.008315 -0.437357
-36.112727 16.302831 2.163723 -176.407312 1.223204 -168.507304 0.000000 0.000000 0.000000 -30.034587 -37.857147 13.654701 0.016227 -0.822172 -2.259573 3.882487 -10.842807 -35.756677 0.674647 -5.250694 -14.625246 0.000000 0.000000 0.000000 38.809467 31.024481 17.213437 -0.282511 3.418429 -9.445937 -4.642807 -16.161821 -48.098474 -2.162809 -9.197195 26.414173 -3.427564 -1.251089 6.699769 5.616764 -0.370218 -10.417644 8.272828 1.148792 -15.352338 -2.276250 -0.304810 -15.550027 -5.620409 3.715654 28.207344 -1.017540 1.384728 11.948532 0.000000 0.000000 0.000000 1.945387 21.107122 -22.049443 19.017107 -29.439876 5.039250 21.407409 9.193137 -24.059172 0.000000 0.000000 0.000000 -7.125000 0.000000 0.000000 -8.544185 55.396367 2.192176 0.000000 0.000000 0.000000 -23.880246 14.737116 56.653530 -17.290045 -27.238462 -4.219197 -26.873705 -2.275155 21.541016 0.000000 0.000000 0.000000 7.125000 0.000000 0.000000 1.969884 53.839821 -0.428255
